Coordinates
version=1
nRows=20
nColumns=38
inDegrees=no

Units are S.I. units (second, meters, Newtons, ...)
If the header above contains a line with 'inDegrees', this indicates whether rotational values are in degrees (yes) or radians (no).

endheader
time	pelvis_tilt	pelvis_list	pelvis_rotation	pelvis_tx	pelvis_ty	pelvis_tz	hip_flexion_r	hip_adduction_r	hip_rotation_r	knee_angle_r	ankle_angle_r	subtalar_angle_r	mtp_angle_r	hip_flexion_l	hip_adduction_l	hip_rotation_l	knee_angle_l	ankle_angle_l	subtalar_angle_l	mtp_angle_l	lumbar_extension	lumbar_bending	lumbar_rotation	arm_flex_r	arm_add_r	arm_rot_r	elbow_flex_r	pro_sup_r	wrist_flex_r	wrist_dev_r	arm_flex_l	arm_add_l	arm_rot_l	elbow_flex_l	pro_sup_l	wrist_flex_l	wrist_dev_l
1.67	-0.680066	1.46477	-0.37086	0.763661	1.4783	0.907565	0.261354	-0.00110757	-0.285987	0.23959	-0.0611657	0	0	-0.293851	-0.299061	-0.0942859	0.444911	0.147399	0	0	-0.267948	0.207964	0.00847045	0.502866	-0.397967	0.322878	1.18365	1.5708	0	0	-0.0831939	-0.35482	0.347279	0.709205	1.42423	0	0
1.68	-0.770062	1.46306	-0.274327	0.762548	1.47056	0.90813	0.266406	0.0128525	-0.304427	0.243761	-0.0590996	0	0	-0.254056	-0.317289	-0.0961644	0.503618	0.125037	0	0	-0.261206	0.216505	0.0174482	0.530094	-0.398202	0.329375	1.17322	1.5708	0	0	-0.0818356	-0.355452	0.354133	0.712485	1.42219	0	0
1.69	-0.896246	1.46191	-0.138268	0.761884	1.46335	0.907965	0.27256	0.0217715	-0.308146	0.242952	-0.0564355	0	0	-0.201587	-0.335936	-0.0936427	0.572095	0.0996956	0	0	-0.248286	0.225465	0.0226934	0.557556	-0.399038	0.337113	1.16063	1.5708	0	0	-0.0809714	-0.359112	0.375449	0.719897	1.37815	0	0
1.7	-0.954908	1.46044	-0.0712099	0.761386	1.45605	0.908537	0.270024	0.0292968	-0.309367	0.239674	-0.0553627	0	0	-0.162109	-0.348438	-0.0846689	0.627362	0.0663919	0	0	-0.243435	0.232208	0.0297551	0.585527	-0.400276	0.344552	1.14839	1.5708	0	0	-0.0797558	-0.359061	0.381435	0.7226	1.39205	0	0
1.71	-1.01119	1.45879	-0.00661272	0.760843	1.44886	0.909035	0.267925	0.0365456	-0.310746	0.236981	-0.0538876	0	0	-0.12141	-0.359946	-0.074988	0.682233	0.0300132	0	0	-0.238818	0.238362	0.0371012	0.613697	-0.40157	0.352848	1.13419	1.5708	0	0	-0.078768	-0.359409	0.386102	0.727336	1.40097	0	0
1.72	-1.05054	1.45755	0.0407522	0.760364	1.44181	0.909656	0.26393	0.0430359	-0.312249	0.233936	-0.0519465	0	0	-0.0828694	-0.369195	-0.0644835	0.734088	-0.00771438	0	0	-0.236269	0.243659	0.0448739	0.642485	-0.403149	0.362382	1.11851	1.5708	0	0	-0.0775002	-0.359706	0.390796	0.73319	1.40634	0	0
1.73	-1.07981	1.45655	0.0776192	0.759893	1.43484	0.910316	0.258646	0.0493086	-0.313659	0.230058	-0.050686	0	0	-0.0458337	-0.376676	-0.0531103	0.783773	-0.044934	0	0	-0.235002	0.248279	0.0535502	0.67118	-0.405006	0.372083	1.10141	1.5708	0	0	-0.0755587	-0.35998	0.395665	0.738832	1.40755	0	0
1.74	-1.10535	1.45603	0.110464	0.75943	1.42797	0.910934	0.25292	0.0550457	-0.315176	0.225588	-0.050337	0	0	-0.00944563	-0.38195	-0.0404429	0.832087	-0.0816443	0	0	-0.234226	0.252022	0.0629266	0.699383	-0.407315	0.382066	1.08288	1.5708	0	0	-0.0731318	-0.360469	0.402247	0.744321	1.40726	0	0
1.75	-1.11891	1.45599	0.130635	0.75889	1.42112	0.911615	0.24556	0.0608533	-0.316257	0.220366	-0.049936	0	0	0.0241932	-0.385654	-0.0286495	0.877883	-0.113471	0	0	-0.235338	0.25479	0.0736178	0.726698	-0.41004	0.391618	1.06413	1.5708	0	0	-0.0701721	-0.361212	0.408695	0.749847	1.40622	0	0
1.76	-1.12641	1.45587	0.145378	0.758458	1.41438	0.912265	0.23744	0.0665469	-0.318635	0.215	-0.0484562	0	0	0.0568015	-0.388647	-0.0175687	0.921738	-0.135014	0	0	-0.236951	0.257634	0.0836734	0.754286	-0.412669	0.403132	1.04277	1.5708	0	0	-0.067408	-0.36228	0.414324	0.75604	1.4017	0	0
1.77	-1.12585	1.45629	0.15169	0.758022	1.40774	0.912973	0.228556	0.0717025	-0.321122	0.210142	-0.0455546	0	0	0.0862821	-0.39	-0.00795866	0.961104	-0.142429	0	0	-0.239977	0.259706	0.0939996	0.782388	-0.415092	0.416978	1.01916	1.5708	0	0	-0.0645746	-0.362816	0.417474	0.762511	1.38949	0	0
1.78	-1.11272	1.45802	0.144675	0.757529	1.40117	0.91387	0.21853	0.0755956	-0.323485	0.206435	-0.0412642	0	0	0.111732	-0.388947	0.00016089	0.995119	-0.138439	0	0	-0.245025	0.260032	0.105029	0.810175	-0.417213	0.430801	0.99222	1.5708	0	0	-0.0607353	-0.366366	0.433448	0.771677	1.32724	0	0
1.79	-1.08724	1.46132	0.124287	0.756989	1.39467	0.915007	0.207302	0.0780471	-0.324887	0.203481	-0.0366371	0	0	0.133799	-0.385575	0.0064544	1.02524	-0.126811	0	0	-0.252399	0.258328	0.117212	0.836326	-0.419343	0.442482	0.96601	1.5708	0	0	-0.0565263	-0.366502	0.436253	0.775305	1.31554	0	0
1.8	-1.06082	1.4654	0.102668	0.75644	1.38838	0.916191	0.196396	0.0793892	-0.326115	0.200999	-0.0316658	0	0	0.155929	-0.379903	0.0134477	1.05558	-0.107329	0	0	-0.260231	0.255559	0.129307	0.862106	-0.421224	0.454565	0.938798	1.5708	0	0	-0.0519184	-0.366135	0.439727	0.777769	1.30693	0	0
1.81	-1.03555	1.47019	0.0818009	0.755948	1.38228	0.917386	0.185951	0.0797358	-0.327027	0.198653	-0.0265795	0	0	0.177702	-0.37205	0.0206177	1.08455	-0.0837844	0	0	-0.268059	0.251938	0.141408	0.887001	-0.423407	0.467073	0.911767	1.5708	0	0	-0.0471936	-0.365239	0.441662	0.780089	1.29995	0	0
1.82	-1.01437	1.47543	0.064419	0.755517	1.37629	0.918551	0.17627	0.0794125	-0.327865	0.196319	-0.0216503	0	0	0.198393	-0.362431	0.0270779	1.10875	-0.0611297	0	0	-0.275337	0.247682	0.153439	0.910962	-0.425735	0.48088	0.8844	1.5708	0	0	-0.0428478	-0.363787	0.443438	0.781492	1.29346	0	0
1.83	-0.995311	1.48104	0.0484356	0.755113	1.37034	0.919705	0.166939	0.0787359	-0.328226	0.19363	-0.0174303	0	0	0.217493	-0.351559	0.0320894	1.12709	-0.0425283	0	0	-0.282227	0.242726	0.16573	0.932927	-0.428184	0.494064	0.857804	1.5708	0	0	-0.0388272	-0.361931	0.445187	0.782028	1.28866	0	0
1.84	-0.989679	1.48685	0.0455285	0.754748	1.3645	0.920703	0.159311	0.0775607	-0.328342	0.191303	-0.0130901	0	0	0.237156	-0.339458	0.0364013	1.14177	-0.026815	0	0	-0.287481	0.237501	0.177198	0.953966	-0.429308	0.507813	0.828873	1.5708	0	0	-0.0358492	-0.359633	0.445621	0.782201	1.2834	0	0
1.85	-0.993019	1.49271	0.0515246	0.75441	1.35873	0.921578	0.152484	0.0762261	-0.32832	0.1889	-0.00884196	0	0	0.256824	-0.326645	0.0399821	1.15332	-0.0129139	0	0	-0.291752	0.232081	0.188069	0.973033	-0.43007	0.521606	0.801505	1.5708	0	0	-0.0337306	-0.35797	0.446102	0.783295	1.27941	0	0
1.86	-1.00155	1.49838	0.0629571	0.754136	1.35299	0.922406	0.145893	0.0749674	-0.32866	0.186312	-0.0048911	0	0	0.276111	-0.313576	0.0428072	1.16184	-1.66037e-05	0	0	-0.29542	0.226852	0.198119	0.989989	-0.430695	0.535575	0.776551	1.5708	0	0	-0.032336	-0.356758	0.446562	0.784827	1.2768	0	0
